<svg xmlns="http://www.w3.org/2000/svg" xmlns:xlink="http://www.w3.org/1999/xlink" width="24" height="24" version="1.1" viewBox="0 0 24 24"><title>button</title><desc>Created with Sketch.</desc><g id="button" fill="none" fill-rule="evenodd" stroke="none" stroke-width="1"><g id="Group"><path id="Shape" fill="#000" fill-rule="nonzero" d="M12,2 C6.48,2 2,6.48 2,12 C2,17.52 6.48,22 12,22 C17.52,22 22,17.52 22,12 C22,6.48 17.52,2 12,2 Z M12,20 C7.59,20 4,16.41 4,12 C4,7.59 7.59,4 12,4 C16.41,4 20,7.59 20,12 C20,16.41 16.41,20 12,20 Z"/><polygon id="Shape" fill="#000" fill-rule="nonzero" points="13 7 11 7 11 11 7 11 7 13 11 13 11 17 13 17 13 13 17 13 17 11 13 11"/><polygon id="Shape" points="0 0 24 0 24 24 0 24"/></g></g></svg>