<svg xmlns="http://www.w3.org/2000/svg" xmlns:xlink="http://www.w3.org/1999/xlink" width="24" height="24" version="1.1" viewBox="0 0 24 24"><title>card</title><desc>Created with Sketch.</desc><g id="card" fill="none" fill-rule="evenodd" stroke="none" stroke-width="1"><g id="download"><path id="Shape" fill="#000" fill-rule="nonzero" d="M20,4 L20,20 L4,20 L4,4 L20,4 Z M22,2 L2,2 L2,22 L22,22 L22,2 Z"/><path id="Shape" fill="#000" fill-rule="nonzero" d="M5,12.54 L11.46,12.54 L11.46,19 L5,19 L5,12.54 Z M12.54,12.54 L19,12.54 L19,19 L12.54,19 L12.54,12.54 Z M5,5 L11.46,5 L11.46,11.46 L5,11.46 L5,5 Z M12.54,5 L19,5 L19,11.46 L12.54,11.46 L12.54,5 Z"/><polygon id="Shape" points="0 0 24 0 24 24 0 24"/></g></g></svg>