<svg xmlns="http://www.w3.org/2000/svg" xmlns:xlink="http://www.w3.org/1999/xlink" width="24" height="24" version="1.1" viewBox="0 0 24 24"><title>list</title><desc>Created with Sketch.</desc><g id="list" fill="none" fill-rule="evenodd" stroke="none" stroke-width="1"><g id="download"><path id="Shape" fill="#000" fill-rule="nonzero" d="M2,4 L6,4 L6,8 L2,8 L2,4 Z M8,4 L22,4 L22,8 L8,8 L8,4 Z M2,10 L6,10 L6,14 L2,14 L2,10 Z M8,10 L22,10 L22,14 L8,14 L8,10 Z M2,16 L6,16 L6,20 L2,20 L2,16 Z M8,16 L22,16 L22,20 L8,20 L8,16 Z"/><polygon id="Shape" points="0 0 24 0 24 24 0 24"/></g></g></svg>