<svg xmlns="http://www.w3.org/2000/svg" xmlns:xlink="http://www.w3.org/1999/xlink" width="24" height="24" version="1.1" viewBox="0 0 24 24"><title>progress_bar</title><desc>Created with Sketch.</desc><g id="progress_bar" fill="none" fill-rule="evenodd" stroke="none" stroke-width="1"><g id="download"><path id="Shape" fill="#000" fill-rule="nonzero" d="M19,9 L5,9 C3.34,9 2,10.34 2,12 C2,13.66 3.34,15 5,15 L19,15 C20.66,15 22,13.66 22,12 C22,10.34 20.66,9 19,9 Z M19,13 L14,13 L14,11 L19,11 C19.55,11 20,11.45 20,12 C20,12.55 19.55,13 19,13 Z"/><polygon id="Shape" points="0 0 24 0 24 24 0 24"/></g></g></svg>