<svg xmlns="http://www.w3.org/2000/svg" xmlns:xlink="http://www.w3.org/1999/xlink" width="200" height="200" version="1.1" viewBox="0 0 200 200"><title>crystal</title><desc>Created with Sketch.</desc><g id="crystal" fill="none" fill-rule="evenodd" stroke="none" stroke-width="1"><g id="crystal-ball" fill-rule="nonzero" transform="translate(17.000000, 0.000000)"><circle id="Oval" cx="82.915" cy="82.915" r="82.915" fill="#E6E6E6"/><rect id="Rectangle-path" width="131.658" height="21.106" x="17.085" y="154.774" fill="#BFBFBF"/><rect id="Rectangle-path" width="165.829" height="24.121" x="0" y="175.879" fill="#999"/><rect id="Rectangle-path" width="7.035" height="10.05" x="10.05" y="189.95" fill="#BFBFBF"/><rect id="Rectangle-path" width="7.035" height="10.05" x="24.121" y="189.95" fill="#BFBFBF"/><rect id="Rectangle-path" width="7.035" height="10.05" x="148.744" y="189.95" fill="#BFBFBF"/><rect id="Rectangle-path" width="7.035" height="10.05" x="134.673" y="189.95" fill="#BFBFBF"/><path id="Shape" fill="#FFF" d="M16.7051629,76.3819095 L10.0502513,74.5366859 C27.8093386,10.7869637 81.8701406,10.0502513 82.4120603,10.0502513 L82.4120603,16.935414 C80.4100641,16.935414 33.0145289,17.8098297 16.7051629,76.3819095 Z" opacity=".61"/><rect id="Rectangle-path" width="7.035" height="7.035" x="89.447" y="10.05" fill="#FFF" opacity=".61"/><rect id="Rectangle-path" width="7.035" height="7.035" x="82.412" y="72.362" fill="#FFF" opacity=".61"/><rect id="Rectangle-path" width="7.035" height="7.035" x="138.693" y="62.312" fill="#FFF" opacity=".61"/><rect id="Rectangle-path" width="7.035" height="7.035" x="141.709" y="106.533" fill="#FFF" opacity=".61"/></g></g></svg>