<svg xmlns="http://www.w3.org/2000/svg" xmlns:xlink="http://www.w3.org/1999/xlink" width="200" height="200" version="1.1" viewBox="0 0 200 200"><title>frameworks</title><desc>Created with Sketch.</desc><g id="frameworks" fill="none" fill-rule="evenodd" stroke="none" stroke-width="1"><g id="Angular_full_color_logo" fill-rule="nonzero" transform="translate(101.000000, 10.000000)"><polygon id="Shape" fill="#E6E6E6" points="41.42 0 41.42 0 41.42 0 0 14.94 6.318 70.335 41.42 90 41.42 90 41.42 90 76.523 70.335 82.841 14.94"/><polygon id="Shape" fill="#999" points="41.932 0 41.932 9.99 41.932 9.945 41.932 55.53 41.932 55.53 41.932 90 41.932 90 77.468 70.335 83.864 14.94"/><path id="Shape" fill="#FFF" d="M42.4880692,10.2272727 L16.3636364,68.5227273 L26.1041895,68.5227273 L31.3560084,55.4788401 L53.5303552,55.4788401 L58.7821742,68.5227273 L68.5227273,68.5227273 L42.4880692,10.2272727 Z M50.1189172,47.4380878 L34.8572211,47.4380878 L42.4880692,29.1677116 L50.1189172,47.4380878 Z"/></g><g id="Vue.js_Logo_2" fill-rule="nonzero" transform="translate(8.000000, 15.000000)"><g id="Group" transform="translate(45.000000, 39.656627) scale(-1, 1) rotate(-180.000000) translate(-45.000000, -39.656627) translate(0.000000, 0.156627)"><g id="Shape" fill="#999" transform="translate(0.026977, 0.004515)"><polygon points="54.403 77.207 44.211 59.479 34.018 77.207 .077 77.207 44.211 .442 88.345 77.207"/></g><g id="Shape" fill="#E6E6E6" transform="translate(17.561816, 30.706650)"><polygon points="36.868 46.505 26.676 28.777 16.484 46.505 .196 46.505 26.676 .447 53.156 46.505"/></g></g></g><g id="preact-seeklogo.com" fill-rule="nonzero" transform="translate(17.000000, 105.000000)"><polygon id="Shape" fill="#E6E6E6" points="36 0 72 20.784 72 62.353 36 83.137 0 62.353 0 20.784"/><path id="Shape" fill="#FFF" d="M9.8057133,62.0095694 C14.5916511,68.1352903 29.8011659,63.4677089 44.1604316,52.249021 C58.5196973,41.0303329 66.7281465,27.401796 61.9422086,21.2760749 C57.1562708,15.1503539 41.9467562,19.8179353 27.5874903,31.0366235 C13.2282244,42.2553113 5.01977548,55.8838482 9.8057133,62.0095694 Z M11.8502817,60.4121774 C10.2630551,58.3806198 10.956536,54.3925915 13.9804288,49.3720043 C17.1646129,44.0852842 22.5700572,38.2492595 29.1848822,33.0811917 C35.7997073,27.9131241 42.7700723,24.0801067 48.6700779,22.2694798 C54.2730783,20.5499995 58.3104136,20.8419094 59.8976401,22.8734669 C61.4848669,24.9050244 60.7913859,28.8930527 57.7674931,33.9136403 C54.5833088,39.2003601 49.1778647,45.0363848 42.5630396,50.2044525 C35.9482146,55.3725203 28.9778496,59.2055376 23.0778439,61.0161643 C17.4748435,62.7356447 13.4375084,62.4437348 11.8502817,60.4121774 Z"/><path id="Shape" fill="#FFF" d="M61.9422086,62.0095694 C66.7281465,55.8838482 58.5196973,42.2553113 44.1604316,31.0366235 C29.8011659,19.8179353 14.5916511,15.1503539 9.8057133,21.2760749 C5.01977548,27.401796 13.2282244,41.0303329 27.5874903,52.249021 C41.9467562,63.4677089 57.1562708,68.1352903 61.9422086,62.0095694 Z M59.8976401,60.4121774 C58.3104136,62.4437348 54.2730783,62.7356447 48.6700779,61.0161643 C42.7700723,59.2055376 35.7997073,55.3725203 29.1848822,50.2044525 C22.5700572,45.0363848 17.1646129,39.2003601 13.9804288,33.9136403 C10.956536,28.8930527 10.2630551,24.9050244 11.8502817,22.8734669 C13.4375084,20.8419094 17.4748435,20.5499995 23.0778439,22.2694798 C28.9778496,24.0801067 35.9482146,27.9131241 42.5630396,33.0811917 C49.1778647,38.2492595 54.5833088,44.0852842 57.7674931,49.3720043 C60.7913859,54.3925915 61.4848669,58.3806198 59.8976401,60.4121774 Z"/><path id="Shape" fill="#FFF" d="M35.8739609,47.1563356 C38.9189903,47.1563356 41.3874745,44.6878516 41.3874745,41.6428223 C41.3874745,38.5977926 38.9189903,36.1293086 35.8739609,36.1293086 C32.8289316,36.1293086 30.3604473,38.5977926 30.3604473,41.6428223 C30.3604473,44.6878516 32.8289316,47.1563356 35.8739609,47.1563356 Z"/></g><g id="Topeka-polymer" fill-rule="nonzero" transform="translate(101.000000, 116.000000)"><polygon id="Shape" fill="#999" points="17.635 30.405 8.514 46.186 17.635 62.027 26.757 46.186"/><polygon id="Shape" fill="#999" points="70.365 0 61.243 15.811 70.365 31.622 79.486 15.811"/><polygon id="Shape" fill="#E6E6E6" points="52.939 0 17.243 62.027 35.061 62.027 70.757 0"/><polygon id="Shape" fill="#E6E6E6" points="18.243 1 0 31.811 9.122 47.216 36.486 1"/><polygon id="Shape" fill="#E6E6E6" points="79.365 16 52 62.216 70.243 62.216 88.486 31.386"/></g></g></svg>