<svg xmlns="http://www.w3.org/2000/svg" xmlns:xlink="http://www.w3.org/1999/xlink" width="200" height="200" version="1.1" viewBox="0 0 200 200"><title>palette</title><desc>Created with Sketch.</desc><g id="palette" fill="none" fill-rule="evenodd" stroke="none" stroke-width="1"><g fill-rule="nonzero" transform="translate(9.000000, 0.000000)"><path id="Shape" fill="#E6E6E6" d="M168.632258,86.9266129 C149.690726,65.3423387 129.922581,60.3245968 129.922581,36.5233871 C129.922581,10.5826613 108.014113,-9.31008065 69.6689516,4.5391129 C28.5548387,19.3883065 0.0838709677,55.2060484 0.0838709677,99.8298387 C0.0838709677,155.058065 44.8552419,199.829839 100.083871,199.829839 C109.167339,199.829839 117.968548,198.618548 126.333468,196.349194 L126.331048,196.33871 C168.632258,184.104032 203.309677,126.442742 168.632258,86.9266129 Z M126.092339,76.4879032 C120.245161,83.9697581 104.04879,79.5955645 97.7979839,69.0092742 C92.2883065,59.678629 94.3044355,46.3350806 103.841532,40.4520161 C109.369758,37.0419355 116.660484,40.3975806 118.047581,46.7431452 C119.176613,51.9068548 121.492339,58.3040323 126.208468,64.1572581 C129.082661,67.7258065 128.914113,72.8774194 126.092339,76.4879032 Z"/><circle id="Oval" cx="58.104" cy="54.713" r="19.31" fill="#BFBFBF"/><circle id="Oval" cx="62.879" cy="49.885" r="6.759" fill="#FFF" opacity=".202"/><circle id="Oval" cx="38.749" cy="103.1" r="19.31" fill="#999"/><circle id="Oval" cx="43.524" cy="98.272" r="6.759" fill="#FFF" opacity=".202"/><circle id="Oval" cx="61.242" cy="148.173" r="19.31" fill="#737373"/><circle id="Oval" cx="66.016" cy="143.345" r="6.759" fill="#FFF" opacity=".202"/><circle id="Oval" cx="109.717" cy="164.39" r="19.31" fill="#4D4D4D"/><circle id="Oval" cx="114.492" cy="159.563" r="6.759" fill="#FFF" opacity=".202"/><circle id="Oval" cx="145.201" cy="128.818" r="19.31" fill="#262626"/><circle id="Oval" cx="149.975" cy="123.99" r="6.759" fill="#FFF" opacity=".202"/></g></g></svg>